<svg width="251" height="52" viewBox="0 0 251 52" fill="none" xmlns="http://www.w3.org/2000/svg">
<path d="M12.6037 39V12.8182H18.1392V23.6207H29.3764V12.8182H34.8991V39H29.3764V28.1847H18.1392V39H12.6037ZM48.233 39.3835C46.2472 39.3835 44.5298 38.9616 43.081 38.1179C41.6406 37.2656 40.5284 36.081 39.7443 34.5639C38.9602 33.0384 38.5682 31.2699 38.5682 29.2585C38.5682 27.2301 38.9602 25.4574 39.7443 23.9403C40.5284 22.4148 41.6406 21.2301 43.081 20.3864C44.5298 19.5341 46.2472 19.108 48.233 19.108C50.2188 19.108 51.9318 19.5341 53.3722 20.3864C54.821 21.2301 55.9375 22.4148 56.7216 23.9403C57.5057 25.4574 57.8977 27.2301 57.8977 29.2585C57.8977 31.2699 57.5057 33.0384 56.7216 34.5639C55.9375 36.081 54.821 37.2656 53.3722 38.1179C51.9318 38.9616 50.2188 39.3835 48.233 39.3835ZM48.2585 35.1648C49.1619 35.1648 49.9162 34.9091 50.5213 34.3977C51.1264 33.8778 51.5824 33.1705 51.8892 32.2756C52.2045 31.3807 52.3622 30.3622 52.3622 29.2202C52.3622 28.0781 52.2045 27.0597 51.8892 26.1648C51.5824 25.2699 51.1264 24.5625 50.5213 24.0426C49.9162 23.5227 49.1619 23.2628 48.2585 23.2628C47.3466 23.2628 46.5795 23.5227 45.9574 24.0426C45.3438 24.5625 44.8793 25.2699 44.5639 26.1648C44.2571 27.0597 44.1037 28.0781 44.1037 29.2202C44.1037 30.3622 44.2571 31.3807 44.5639 32.2756C44.8793 33.1705 45.3438 33.8778 45.9574 34.3977C46.5795 34.9091 47.3466 35.1648 48.2585 35.1648ZM61.5412 39V12.8182H66.9872V22.6619H67.1534C67.392 22.1335 67.7372 21.5966 68.1889 21.0511C68.6491 20.4972 69.2457 20.0369 69.9787 19.6705C70.7202 19.2955 71.6406 19.108 72.7401 19.108C74.1719 19.108 75.4929 19.483 76.7031 20.233C77.9134 20.9744 78.8807 22.0952 79.6051 23.5952C80.3295 25.0866 80.6918 26.9574 80.6918 29.2074C80.6918 31.3977 80.3381 33.2472 79.6307 34.7557C78.9318 36.2557 77.9773 37.3935 76.767 38.169C75.5653 38.9361 74.2188 39.3196 72.7273 39.3196C71.6705 39.3196 70.7713 39.1449 70.0298 38.7955C69.2969 38.446 68.696 38.0071 68.2273 37.4787C67.7585 36.9418 67.4006 36.4006 67.1534 35.8551H66.9105V39H61.5412ZM66.8722 29.1818C66.8722 30.3494 67.0341 31.3679 67.358 32.2372C67.6818 33.1065 68.1506 33.7841 68.7642 34.2699C69.3778 34.7472 70.1236 34.9858 71.0014 34.9858C71.8878 34.9858 72.6378 34.7429 73.2514 34.2571C73.8651 33.7628 74.3295 33.081 74.6449 32.2116C74.9688 31.3338 75.1307 30.3239 75.1307 29.1818C75.1307 28.0483 74.973 27.0511 74.6577 26.1903C74.3423 25.3295 73.8778 24.6562 73.2642 24.1705C72.6506 23.6847 71.8963 23.4418 71.0014 23.4418C70.1151 23.4418 69.3651 23.6761 68.7514 24.1449C68.1463 24.6136 67.6818 25.2784 67.358 26.1392C67.0341 27 66.8722 28.0142 66.8722 29.1818ZM84.4279 39V12.8182H89.8739V22.6619H90.0401C90.2788 22.1335 90.6239 21.5966 91.0756 21.0511C91.5359 20.4972 92.1325 20.0369 92.8654 19.6705C93.6069 19.2955 94.5273 19.108 95.6268 19.108C97.0586 19.108 98.3796 19.483 99.5898 20.233C100.8 20.9744 101.767 22.0952 102.492 23.5952C103.216 25.0866 103.578 26.9574 103.578 29.2074C103.578 31.3977 103.225 33.2472 102.517 34.7557C101.819 36.2557 100.864 37.3935 99.6538 38.169C98.4521 38.9361 97.1055 39.3196 95.614 39.3196C94.5572 39.3196 93.658 39.1449 92.9165 38.7955C92.1836 38.446 91.5827 38.0071 91.114 37.4787C90.6452 36.9418 90.2873 36.4006 90.0401 35.8551H89.7972V39H84.4279ZM89.7589 29.1818C89.7589 30.3494 89.9208 31.3679 90.2447 32.2372C90.5685 33.1065 91.0373 33.7841 91.6509 34.2699C92.2646 34.7472 93.0103 34.9858 93.8881 34.9858C94.7745 34.9858 95.5245 34.7429 96.1381 34.2571C96.7518 33.7628 97.2163 33.081 97.5316 32.2116C97.8555 31.3338 98.0174 30.3239 98.0174 29.1818C98.0174 28.0483 97.8597 27.0511 97.5444 26.1903C97.229 25.3295 96.7646 24.6562 96.1509 24.1705C95.5373 23.6847 94.783 23.4418 93.8881 23.4418C93.0018 23.4418 92.2518 23.6761 91.6381 24.1449C91.033 24.6136 90.5685 25.2784 90.2447 26.1392C89.9208 27 89.7589 28.0142 89.7589 29.1818ZM109.942 46.3636C109.251 46.3636 108.604 46.3082 107.999 46.1974C107.402 46.0952 106.908 45.9631 106.516 45.8011L107.743 41.7358C108.382 41.9318 108.957 42.0384 109.469 42.0554C109.989 42.0724 110.436 41.9531 110.811 41.6974C111.195 41.4418 111.506 41.0071 111.744 40.3935L112.064 39.5625L105.02 19.3636H110.747L114.812 33.7841H115.017L119.121 19.3636H124.886L117.254 41.1222C116.888 42.179 116.389 43.0994 115.759 43.8835C115.136 44.6761 114.348 45.2855 113.393 45.7116C112.439 46.1463 111.288 46.3636 109.942 46.3636Z" fill="black"/>
<path d="M127.776 39V12.8182H133.311V23.6207H144.548V12.8182H150.071V39H144.548V28.1847H133.311V39H127.776ZM163.405 39.3835C161.419 39.3835 159.702 38.9616 158.253 38.1179C156.813 37.2656 155.7 36.081 154.916 34.5639C154.132 33.0384 153.74 31.2699 153.74 29.2585C153.74 27.2301 154.132 25.4574 154.916 23.9403C155.7 22.4148 156.813 21.2301 158.253 20.3864C159.702 19.5341 161.419 19.108 163.405 19.108C165.391 19.108 167.104 19.5341 168.544 20.3864C169.993 21.2301 171.109 22.4148 171.893 23.9403C172.678 25.4574 173.07 27.2301 173.07 29.2585C173.07 31.2699 172.678 33.0384 171.893 34.5639C171.109 36.081 169.993 37.2656 168.544 38.1179C167.104 38.9616 165.391 39.3835 163.405 39.3835ZM163.43 35.1648C164.334 35.1648 165.088 34.9091 165.693 34.3977C166.298 33.8778 166.754 33.1705 167.061 32.2756C167.376 31.3807 167.534 30.3622 167.534 29.2202C167.534 28.0781 167.376 27.0597 167.061 26.1648C166.754 25.2699 166.298 24.5625 165.693 24.0426C165.088 23.5227 164.334 23.2628 163.43 23.2628C162.518 23.2628 161.751 23.5227 161.129 24.0426C160.516 24.5625 160.051 25.2699 159.736 26.1648C159.429 27.0597 159.276 28.0781 159.276 29.2202C159.276 30.3622 159.429 31.3807 159.736 32.2756C160.051 33.1705 160.516 33.8778 161.129 34.3977C161.751 34.9091 162.518 35.1648 163.43 35.1648ZM176.713 39V12.8182H182.159V22.6619H182.325C182.564 22.1335 182.909 21.5966 183.361 21.0511C183.821 20.4972 184.418 20.0369 185.151 19.6705C185.892 19.2955 186.813 19.108 187.912 19.108C189.344 19.108 190.665 19.483 191.875 20.233C193.085 20.9744 194.053 22.0952 194.777 23.5952C195.501 25.0866 195.864 26.9574 195.864 29.2074C195.864 31.3977 195.51 33.2472 194.803 34.7557C194.104 36.2557 193.149 37.3935 191.939 38.169C190.737 38.9361 189.391 39.3196 187.899 39.3196C186.842 39.3196 185.943 39.1449 185.202 38.7955C184.469 38.446 183.868 38.0071 183.399 37.4787C182.93 36.9418 182.572 36.4006 182.325 35.8551H182.082V39H176.713ZM182.044 29.1818C182.044 30.3494 182.206 31.3679 182.53 32.2372C182.854 33.1065 183.322 33.7841 183.936 34.2699C184.55 34.7472 185.295 34.9858 186.173 34.9858C187.06 34.9858 187.81 34.7429 188.423 34.2571C189.037 33.7628 189.501 33.081 189.817 32.2116C190.141 31.3338 190.303 30.3239 190.303 29.1818C190.303 28.0483 190.145 27.0511 189.83 26.1903C189.514 25.3295 189.05 24.6562 188.436 24.1705C187.822 23.6847 187.068 23.4418 186.173 23.4418C185.287 23.4418 184.537 23.6761 183.923 24.1449C183.318 24.6136 182.854 25.2784 182.53 26.1392C182.206 27 182.044 28.0142 182.044 29.1818ZM199.6 39V12.8182H205.046V22.6619H205.212C205.451 22.1335 205.796 21.5966 206.248 21.0511C206.708 20.4972 207.304 20.0369 208.037 19.6705C208.779 19.2955 209.699 19.108 210.799 19.108C212.23 19.108 213.551 19.483 214.762 20.233C215.972 20.9744 216.939 22.0952 217.664 23.5952C218.388 25.0866 218.75 26.9574 218.75 29.2074C218.75 31.3977 218.397 33.2472 217.689 34.7557C216.99 36.2557 216.036 37.3935 214.826 38.169C213.624 38.9361 212.277 39.3196 210.786 39.3196C209.729 39.3196 208.83 39.1449 208.088 38.7955C207.355 38.446 206.755 38.0071 206.286 37.4787C205.817 36.9418 205.459 36.4006 205.212 35.8551H204.969V39H199.6ZM204.931 29.1818C204.931 30.3494 205.093 31.3679 205.417 32.2372C205.74 33.1065 206.209 33.7841 206.823 34.2699C207.436 34.7472 208.182 34.9858 209.06 34.9858C209.946 34.9858 210.696 34.7429 211.31 34.2571C211.924 33.7628 212.388 33.081 212.703 32.2116C213.027 31.3338 213.189 30.3239 213.189 29.1818C213.189 28.0483 213.032 27.0511 212.716 26.1903C212.401 25.3295 211.936 24.6562 211.323 24.1705C210.709 23.6847 209.955 23.4418 209.06 23.4418C208.174 23.4418 207.424 23.6761 206.81 24.1449C206.205 24.6136 205.74 25.2784 205.417 26.1392C205.093 27 204.931 28.0142 204.931 29.1818ZM225.114 46.3636C224.423 46.3636 223.776 46.3082 223.17 46.1974C222.574 46.0952 222.08 45.9631 221.688 45.8011L222.915 41.7358C223.554 41.9318 224.129 42.0384 224.641 42.0554C225.161 42.0724 225.608 41.9531 225.983 41.6974C226.366 41.4418 226.678 41.0071 226.916 40.3935L227.236 39.5625L220.192 19.3636H225.919L229.984 33.7841H230.189L234.293 19.3636H240.058L232.426 41.1222C232.06 42.179 231.561 43.0994 230.93 43.8835C230.308 44.6761 229.52 45.2855 228.565 45.7116C227.611 46.1463 226.46 46.3636 225.114 46.3636Z" fill="#6B4EFF"/>
</svg>
